HIERARCHY
ROOT SpineBase
{
  OFFSET 0.000000 0.000000 0.000000
  CHANNELS 6 Xposition Yposition Zposition Zrotation Xrotation Yrotation
  JOINT SpineMid
  {
    OFFSET 0.000000 28.995239 0.000000
    CHANNELS 3 Zrotation Xrotation Yrotation
    JOINT SpineShoulder
    {
      OFFSET 0.042294 21.460436 -0.613427
      CHANNELS 3 Zrotation Xrotation Yrotation
      JOINT Neck
      {
        OFFSET 0.019502 7.084367 -0.489663
        CHANNELS 3 Zrotation Xrotation Yrotation
        JOINT Head
        {
          OFFSET -0.729784 12.866775 0.243338
          CHANNELS 3 Zrotation Xrotation Yrotation
          End Site
          {
            OFFSET 0 0 0
          }
        }
      }
      JOINT ShoulderLeft
      {
        OFFSET -16.706825 -2.810074 2.563445
        CHANNELS 3 Zrotation Xrotation Yrotation
        JOINT ElbowLeft
        {
          OFFSET -5.629750 -25.867160 1.326061
          CHANNELS 3 Zrotation Xrotation Yrotation
          JOINT WristLeft
          {
            OFFSET -4.616738 -22.081867 -2.830299
            CHANNELS 3 Zrotation Xrotation Yrotation
            JOINT HandLeft
            {
              OFFSET -0.381027 -7.815898 0.962250
              CHANNELS 3 Zrotation Xrotation Yrotation
              JOINT HandTipLeft
              {
                OFFSET -0.698045 -7.841675 0.136968
                CHANNELS 3 Zrotation Xrotation Yrotation
                End Site
                {
                  OFFSET 0 0 0
                }
              }
              JOINT ThumbLeft
              {
                OFFSET 2.710681 0.011081 -1.391638
                CHANNELS 3 Zrotation Xrotation Yrotation
                End Site
                {
                  OFFSET 0 0 0
                }
              }
            }
          }
        }
      }
      JOINT ShoulderRight
      {
        OFFSET 16.124270 -2.575059 -5.367953
        CHANNELS 3 Zrotation Xrotation Yrotation
        JOINT ElbowRight
        {
          OFFSET 6.370901 -25.179022 -2.991552
          CHANNELS 3 Zrotation Xrotation Yrotation
          JOINT WristRight
          {
            OFFSET -3.780947 -21.286319 -8.611002
            CHANNELS 3 Zrotation Xrotation Yrotation
            JOINT HandRight
            {
              OFFSET -2.249842 -7.907358 -2.140688
              CHANNELS 3 Zrotation Xrotation Yrotation
              JOINT HandTipRight
              {
                OFFSET -1.044655 -6.349799 -2.488325
                CHANNELS 3 Zrotation Xrotation Yrotation
                End Site
                {
                  OFFSET 0 0 0
                }
              }
              JOINT ThumbRight
              {
                OFFSET 2.735863 -1.259607 -2.699223
                CHANNELS 3 Zrotation Xrotation Yrotation
                End Site
                {
                  OFFSET 0 0 0
                }
              }
            }
          }
        }
      }
    }
  }
  JOINT HipLeft
  {
    OFFSET -7.337223 0.504591 -2.102733
    CHANNELS 3 Zrotation Xrotation Yrotation
    JOINT KneeLeft
    {
      OFFSET -5.837095 -31.932099 3.305946
      CHANNELS 3 Zrotation Xrotation Yrotation
      JOINT AnkleLeft
      {
        OFFSET -1.701681 -34.517265 7.954148
        CHANNELS 3 Zrotation Xrotation Yrotation
        JOINT FootLeft
        {
          OFFSET 1.606362 -7.670317 -6.087170
          CHANNELS 3 Zrotation Xrotation Yrotation
          End Site
          {
            OFFSET 0 0 0
          }
        }
      }
    }
  }
  JOINT HipRight
  {
    OFFSET 6.966721 0.592257 -4.754532
    CHANNELS 3 Zrotation Xrotation Yrotation
    JOINT KneeRight
    {
      OFFSET 4.508623 -27.880974 4.725257
      CHANNELS 3 Zrotation Xrotation Yrotation
      JOINT AnkleRight
      {
        OFFSET 2.815963 -37.821236 12.469498
        CHANNELS 3 Zrotation Xrotation Yrotation
        JOINT FootRight
        {
          OFFSET -4.144629 -5.034121 -9.192032
          CHANNELS 3 Zrotation Xrotation Yrotation
          End Site
          {
            OFFSET 0 0 0
          }
        }
      }
    }
  }
}
MOTION
Frames: 12
Frame Time: 0.033333
20.806518 73.900170 363.309155 -0.000000 0.000000 10.502790 -0.000000 0.000000 -10.502790 -0.000000 0.000000 0.000000 -0.000000 0.000000 0.000000 0.000000 0.000000 0.000000 -0.000000 0.000000 0.000000 -0.000000 0.000000 0.000000 -0.000000 0.000000 0.000000 -0.000000 0.000000 0.000000 0.000000 0.000000 0.000000 0.000000 0.000000 0.000000 -0.000000 0.000000 0.000000 -0.000000 0.000000 0.000000 -0.000000 0.000000 0.000000 -0.000000 0.000000 0.000000 0.000000 0.000000 0.000000 0.000000 0.000000 0.000000 -0.000000 0.000000 -10.502790 -0.000000 0.000000 0.000000 -0.000000 0.000000 0.000000 0.000000 0.000000 0.000000 -0.000000 0.000000 -10.502790 -0.000000 0.000000 0.000000 -0.000000 0.000000 0.000000 0.000000 0.000000 0.000000
21.049231 73.885626 363.337204 0.242665 -0.034209 10.332875 -0.232593 0.077180 -10.332646 -0.000000 0.000000 0.000000 -0.000000 0.000000 0.000000 0.000000 0.000000 0.000000 0.243364 -2.824512 0.632816 -0.192129 0.187103 -0.074768 1.443548 0.668005 -0.311133 -2.683294 2.477699 -0.272276 0.000000 0.000000 0.000000 0.000000 0.000000 0.000000 -0.000000 0.000000 0.000000 4.728664 -4.189513 -1.018963 2.779711 -1.497924 0.791480 -2.208219 -1.499067 -0.313995 0.000000 0.000000 0.000000 0.000000 0.000000 0.000000 -0.232593 0.077180 -10.332646 -0.000000 0.000000 0.000000 4.844052 -5.758155 -4.960739 0.000000 0.000000 0.000000 -0.232593 0.077180 -10.332646 -0.000000 0.000000 0.000000 0.238086 1.136745 -1.350794 0.000000 0.000000 0.000000
21.243822 73.869038 363.375478 0.429124 -0.084803 10.236893 -0.407223 0.159713 -10.236008 -0.000000 0.000000 0.000000 -0.000000 0.000000 0.000000 0.000000 0.000000 0.000000 0.525409 -5.238360 1.190199 -0.402989 0.386812 -0.139860 2.934479 1.354050 -0.627975 -5.248285 4.522298 -0.422340 0.000000 0.000000 0.000000 0.000000 0.000000 0.000000 0.124995 -1.002818 -0.267705 8.727106 -6.945643 -1.500229 5.028298 -2.562689 1.510327 -3.917132 -2.959526 -0.336169 0.000000 0.000000 0.000000 0.000000 0.000000 0.000000 -0.407223 0.159713 -10.236008 -0.000000 0.000000 0.000000 8.254858 -9.629458 -8.303050 0.000000 0.000000 0.000000 -0.791854 -0.969195 -10.459251 -0.452626 1.757092 0.072036 1.096885 1.723181 -2.516434 0.000000 0.000000 0.000000
21.390291 73.850406 363.423978 0.559462 -0.151757 10.215147 -0.523685 0.248561 -10.213270 -0.000000 0.000000 0.000000 -0.000000 0.000000 0.000000 0.000000 0.000000 0.000000 0.837063 -7.280124 1.679823 -0.632312 0.652483 -0.207688 4.522838 2.089291 -0.936294 -7.608276 6.042868 -0.519046 0.000000 0.000000 0.000000 0.000000 0.000000 0.000000 0.362821 -1.587430 -0.440134 11.913872 -9.579137 -1.776332 6.492193 -3.126288 2.129532 -5.041426 -4.248377 -0.215895 0.000000 0.000000 0.000000 0.000000 0.000000 0.000000 -0.523685 0.248561 -10.213270 -0.000000 0.000000 0.000000 10.478287 -11.279729 -10.251855 0.000000 0.000000 0.000000 -1.055364 -1.231417 -10.512256 -0.579860 2.364583 0.106701 1.538423 2.667938 -3.772076 0.000000 0.000000 0.000000
21.488638 73.829728 363.482703 0.633766 -0.235048 10.267648 -0.581731 0.344236 -10.264600 -0.000000 0.000000 0.000000 -0.000000 0.000000 0.000000 0.000000 0.000000 0.000000 1.172117 -8.985020 2.107676 -0.880357 1.026117 -0.288379 6.279179 2.948317 -1.231285 -9.693844 6.907583 -0.639614 0.000000 0.000000 0.000000 0.000000 0.000000 0.000000 0.713585 -2.230028 -0.635678 14.260100 -11.543251 -1.857660 7.107796 -3.232860 2.651090 -5.601912 -5.296308 -0.095229 0.000000 0.000000 0.000000 0.000000 0.000000 0.000000 -1.361345 0.564720 -10.356058 0.806530 -0.076700 0.098182 11.688157 -10.590690 -10.985797 0.000000 0.000000 0.000000 -1.238493 -1.365521 -10.618584 -0.627129 2.806214 0.142410 1.899211 3.662974 -5.020515 0.000000 0.000000 0.000000
21.538863 73.807006 363.551653 0.652120 -0.334655 10.394096 -0.581060 0.446796 -10.389926 -0.000000 0.000000 0.000000 -0.000000 0.000000 0.000000 0.000000 0.000000 0.000000 1.526554 -10.383617 2.478337 -1.147795 1.540226 -0.390103 8.307991 4.070893 -1.524316 -11.509134 6.927888 -0.857596 0.000000 0.000000 0.000000 0.000000 0.000000 0.000000 1.175779 -2.933149 -0.852281 15.762527 -12.823264 -1.817833 6.890351 -2.952251 3.102240 -5.634199 -6.102638 -0.076769 0.000000 0.000000 0.000000 0.000000 0.000000 0.000000 -1.428815 0.711600 -10.492158 0.881768 -0.105933 0.111617 11.894887 -7.446548 -10.544215 0.000000 0.000000 0.000000 -1.344526 -1.380126 -10.779579 -0.587137 3.086848 0.179967 2.174678 4.703946 -6.257998 0.000000 0.000000 0.000000
21.462020 73.793241 363.625325 0.486577 -0.448805 10.711515 -0.394700 0.531408 -10.707779 -0.000000 0.000000 0.000000 -0.000000 0.000000 0.000000 0.000000 0.000000 0.000000 2.007019 -11.678757 2.854116 -1.481481 2.499889 -0.585182 10.612952 6.347345 -1.916770 -12.281890 6.568159 -1.437215 0.000000 0.000000 0.000000 0.000000 0.000000 0.000000 1.958436 -3.937192 -1.161662 15.789870 -13.018238 -1.585146 5.689977 -2.754581 3.736558 -5.373055 -7.173605 0.109834 0.000000 0.000000 0.000000 0.000000 0.000000 0.000000 -1.144051 0.877351 -10.818013 0.800928 -0.199084 0.120838 12.195087 -2.387676 -9.877442 0.000000 0.000000 0.000000 -1.458875 -0.994546 -11.115132 0.236740 2.872337 0.332988 2.674505 8.024433 -10.235663 0.000000 0.000000 0.000000
21.403762 73.768170 363.707757 0.368341 -0.577045 11.024880 -0.251210 0.636826 -11.021629 -0.000000 0.000000 0.000000 -0.000000 0.000000 0.000000 0.000000 0.000000 0.000000 2.499876 -12.579932 3.149089 -1.962810 3.625822 -0.774535 14.819867 8.082113 -2.258702 -14.959116 4.293343 -2.070701 0.000000 0.000000 0.000000 0.000000 0.000000 0.000000 2.835620 -4.927940 -1.460826 15.443328 -12.910410 -1.343257 2.361014 -0.591122 4.136849 -3.836812 -7.958317 -0.187801 0.000000 0.000000 0.000000 0.000000 0.000000 0.000000 -0.979910 1.011122 -11.134180 0.787214 -0.226463 0.124586 10.666773 6.531900 -7.250306 0.000000 0.000000 0.000000 -1.380961 -0.668688 -11.409367 0.529116 2.714389 0.375501 2.307833 8.183925 -10.110015 0.000000 0.000000 0.000000
21.337471 73.734128 363.813944 0.264131 -0.731783 11.322251 -0.115337 0.769393 -11.319789 -0.000000 0.000000 0.000000 0.804767 0.311255 0.000248 0.000000 0.000000 0.000000 2.839423 -13.149151 3.344661 -2.200131 4.038315 -0.851608 19.393427 14.443724 -3.904454 -17.948514 -1.237214 -3.306042 0.000000 0.000000 0.000000 0.000000 0.000000 0.000000 3.617386 -5.839476 -1.720727 14.649861 -12.262476 -1.133212 -0.830466 1.095475 4.693910 -1.529706 -8.410429 -0.962618 0.000000 0.000000 0.000000 0.000000 0.000000 0.000000 -0.115337 0.769393 -11.319789 0.553875 0.809240 0.083985 2.452868 19.366741 1.137910 0.000000 0.000000 0.000000 -1.272787 -0.576977 -11.715240 0.649650 2.734891 0.415057 2.783413 10.238375 -12.305074 0.000000 0.000000 0.000000
21.266815 73.692667 363.931815 0.183817 -0.908232 11.595889 0.002488 0.926642 -11.594452 0.338966 -0.798886 0.027978 0.616479 0.927646 -0.048376 0.000000 0.000000 0.000000 2.792279 -12.641994 3.400395 -2.327273 5.356579 -1.147983 24.743476 19.112905 -5.325642 -22.672749 -8.085426 -4.816496 0.000000 0.000000 0.000000 0.000000 0.000000 0.000000 3.846463 -5.663867 -1.974793 13.685411 -11.562525 -0.918387 -4.150059 3.230264 5.080328 1.129446 -8.209396 -1.898443 0.000000 0.000000 0.000000 0.000000 0.000000 0.000000 0.002488 0.926642 -11.594452 0.613244 0.968977 0.088556 -1.699905 25.374093 5.601132 0.000000 0.000000 0.000000 -1.061169 -0.211092 -11.940177 0.614330 2.488305 0.374911 2.120357 8.591191 -10.249068 0.000000 0.000000 0.000000
21.206316 73.656124 364.057723 0.116319 -1.079320 11.888315 0.247599 0.270933 -11.879725 0.045413 -0.141410 0.016515 0.805462 0.881365 -0.064861 0.000000 0.000000 0.000000 2.962471 -12.420467 3.394024 -1.933116 5.878877 -1.421628 29.468390 31.556949 -9.976043 -27.122369 -19.431361 -8.322850 0.000000 0.000000 0.000000 0.000000 0.000000 0.000000 4.183955 -5.943554 -2.091733 12.710823 -10.423981 -0.881647 -7.520171 4.110921 5.982036 3.315138 -8.400814 -2.416962 0.000000 0.000000 0.000000 0.000000 0.000000 0.000000 0.108526 1.080131 -11.888242 0.653482 1.090505 0.090833 -7.144280 26.948623 10.579574 0.000000 0.000000 0.000000 -0.622093 0.123126 -12.143881 0.233815 2.295899 0.266456 2.097345 8.499056 -10.010608 0.000000 0.000000 0.000000
21.167451 73.612851 364.177486 0.081858 -1.222971 12.145217 0.263419 0.294286 -12.137689 0.080971 -0.121674 0.017613 1.018854 0.868889 -0.080363 0.000000 0.000000 0.000000 2.991915 -11.891555 3.286704 -1.223708 7.531656 -2.016896 28.170418 44.875709 -13.792780 -25.225687 -34.046999 -10.187254 0.000000 0.000000 0.000000 0.000000 0.000000 0.000000 4.133408 -5.979572 -2.125856 11.449491 -9.066938 -0.781612 -10.680873 5.720138 6.337502 7.566198 -11.339251 -2.740249 0.000000 0.000000 0.000000 0.000000 0.000000 0.000000 0.177296 1.212819 -12.146220 0.682652 1.262177 0.087814 -14.342681 24.950640 16.561064 0.000000 0.000000 0.000000 -0.396222 0.187367 -12.379022 -0.273133 2.422481 0.151539 2.301576 8.362383 -9.676164 0.000000 0.000000 0.000000
